<svg width="24" height="24" viewBox="0 0 24 24" fill="none" xmlns="http://www.w3.org/2000/svg">
<path d="M6.39844 11.6227V21.654L6.40547 11.6227H6.39844ZM19.0125 9.5532H11.6437L11.8687 4.9032C11.8828 4.62429 11.7586 4.36179 11.5266 4.18835C11.3836 4.08289 11.2078 4.02898 11.032 4.03132C10.5727 4.03367 10.1672 4.34539 10.043 4.78835C9.17344 7.93835 8.52187 10.3009 8.08594 11.8782V19.9688H17.4469C17.6811 19.8638 17.8801 19.6934 18.0198 19.478C18.1595 19.2626 18.234 19.0115 18.2344 18.7548C18.2344 18.5274 18.1805 18.3118 18.0727 18.1149L17.7469 17.5196L18.2602 17.0743C18.4046 16.9492 18.5204 16.7944 18.5997 16.6205C18.679 16.4466 18.7199 16.2576 18.7195 16.0665C18.7195 15.8391 18.6656 15.6235 18.5578 15.4266L18.232 14.8313L18.7453 14.386C18.8898 14.2609 19.0056 14.1061 19.0849 13.9322C19.1641 13.7583 19.205 13.5693 19.2047 13.3782C19.2047 13.1509 19.1508 12.9352 19.043 12.7384L18.7148 12.1407L19.2281 11.6954C19.3726 11.5703 19.4884 11.4155 19.5677 11.2416C19.647 11.0676 19.6878 10.8787 19.6875 10.6876C19.6875 10.2399 19.4297 9.80867 19.0125 9.5532Z" fill="black" fill-opacity="0.15"/>
<path d="M2.625 12.375V20.9063C2.625 21.3211 2.96016 21.6563 3.375 21.6563H4.89844V11.625H3.375C2.96016 11.625 2.625 11.9602 2.625 12.375ZM20.7633 12.5086C21.157 11.9883 21.375 11.3508 21.375 10.6875C21.375 9.63518 20.7867 8.63675 19.8398 8.08596C19.5961 7.94298 19.3185 7.86773 19.0359 7.868H13.4133L13.5539 4.98753C13.5891 4.29143 13.343 3.6305 12.8625 3.12659C12.628 2.87797 12.345 2.6802 12.0309 2.54553C11.7168 2.41087 11.3784 2.3422 11.0367 2.34378C9.81797 2.34378 8.73984 3.16409 8.41641 4.33831L6.40547 11.6227L6.39844 21.6539H17.4633C17.6812 21.6539 17.8898 21.6117 18.0844 21.5274C19.2 21.0516 19.9195 19.9617 19.9195 18.7524C19.9195 18.4571 19.8773 18.1664 19.793 17.8852C20.1867 17.3649 20.4047 16.7274 20.4047 16.0641C20.4047 15.7688 20.3625 15.4782 20.2781 15.1969C20.6719 14.6766 20.8898 14.0391 20.8898 13.3758C20.8898 13.0805 20.8477 12.7899 20.7633 12.5086ZM19.2281 11.6953L18.7148 12.1407L19.043 12.7383C19.1503 12.9344 19.206 13.1546 19.2047 13.3782C19.2047 13.7649 19.0383 14.1328 18.7453 14.386L18.232 14.8313L18.5578 15.4266C18.6651 15.6227 18.7208 15.8429 18.7195 16.0664C18.7195 16.4532 18.5531 16.8211 18.2602 17.0742L17.7469 17.5196L18.0727 18.1149C18.18 18.311 18.2356 18.5312 18.2344 18.7547C18.2344 19.2797 17.925 19.7532 17.4469 19.9688H8.08594V11.8782C8.52187 10.3032 9.17344 7.94065 10.043 4.78831C10.1037 4.5721 10.233 4.38143 10.4113 4.24492C10.5896 4.10842 10.8075 4.03345 11.032 4.03128C11.2078 4.02893 11.3836 4.08284 11.5266 4.18831C11.7586 4.36175 11.8828 4.62425 11.8687 4.90315L11.6437 9.55315H19.0125C19.4297 9.80862 19.6875 10.2399 19.6875 10.6875C19.6875 11.0742 19.5211 11.4422 19.2281 11.6953Z" fill="black"/>
</svg>
