<svg width="24" height="24" viewBox="0 0 24 24" fill="none" xmlns="http://www.w3.org/2000/svg">
<path d="M21.919 10.127C21.9383 9.9969 21.9317 9.86428 21.8996 9.73674C21.8676 9.6092 21.8107 9.48923 21.7322 9.38371C21.6537 9.27819 21.5551 9.18919 21.4422 9.1218C21.3293 9.05441 21.2041 9.00996 21.074 8.99099L15.423 8.16499L12.897 3.01799C12.8058 2.86067 12.6749 2.73008 12.5173 2.63934C12.3597 2.54859 12.1811 2.50088 11.9992 2.50098C11.8174 2.50108 11.6388 2.54899 11.4813 2.63991C11.3238 2.73083 11.193 2.86157 11.102 3.01899L8.57701 8.16499L2.92601 8.99099C2.74156 9.01779 2.56826 9.0956 2.42568 9.21565C2.2831 9.3357 2.17691 9.49321 2.11909 9.67041C2.06127 9.84761 2.05413 10.0374 2.09847 10.2185C2.1428 10.3995 2.23686 10.5646 2.37001 10.695L6.46301 14.708L5.49701 20.372C5.46648 20.5558 5.48781 20.7445 5.55862 20.9169C5.62943 21.0893 5.7469 21.2385 5.89785 21.3478C6.04879 21.4571 6.22722 21.5221 6.41309 21.5356C6.59896 21.549 6.78489 21.5104 6.95001 21.424L12 18.754L17.049 21.423C17.2139 21.5103 17.4 21.5497 17.5861 21.5368C17.7723 21.5239 17.9511 21.4592 18.1024 21.3499C18.2536 21.2407 18.3713 21.0913 18.4421 20.9186C18.5129 20.746 18.534 20.557 18.503 20.373L17.537 14.708L21.631 10.694C21.7862 10.5414 21.8873 10.3423 21.919 10.127ZM16.65 14.177C16.5925 14.2336 16.5494 14.3032 16.5246 14.38C16.4997 14.4568 16.4936 14.5384 16.507 14.618L17.517 20.539L12.233 17.746C12.161 17.7086 12.0811 17.689 12 17.689C11.9189 17.689 11.839 17.7086 11.767 17.746L6.48301 20.54L7.49301 14.618C7.50638 14.5384 7.50036 14.4568 7.47547 14.38C7.45058 14.3032 7.40754 14.2336 7.35001 14.177L3.07001 9.97999L8.98201 9.11599C9.06239 9.10402 9.13868 9.07275 9.20433 9.02486C9.26999 8.97696 9.32306 8.91388 9.35901 8.84099L12 3.45999L14.64 8.84199C14.6761 8.915 14.7293 8.97817 14.7951 9.02607C14.861 9.07397 14.9375 9.10517 15.018 9.11699L20.931 9.97999L16.65 14.177Z" fill="#FF003B"/>
</svg>
