<svg width="20" height="19" viewBox="0 0 20 19" fill="none" xmlns="http://www.w3.org/2000/svg">
<g clip-path="url(#clip0_90_1871)">
<path d="M10.0001 0C4.76193 0 0.500488 4.26167 0.500488 9.49989C0.500488 14.7383 4.76193 19 10.0001 19C15.2384 19 19.5 14.7383 19.5 9.49989C19.5 4.26167 15.2381 0 10.0001 0ZM10.0001 17.6265C5.5194 17.6265 1.87374 13.9809 1.87374 9.49989C1.87374 5.01892 5.51917 1.37348 10.0001 1.37348C14.4811 1.37348 18.1266 5.01892 18.1266 9.49989C18.1266 13.9809 14.4811 17.6265 10.0001 17.6265Z" fill="black"/>
<path d="M12.7485 10.3746C12.7449 10.3746 12.7416 10.3746 12.738 10.3746L10.6865 10.4053V5.03635C10.6865 4.65704 10.379 4.34961 9.99973 4.34961C9.62042 4.34961 9.31299 4.65704 9.31299 5.03635V11.1025C9.31299 11.1039 9.31345 11.1053 9.31345 11.1067C9.31345 11.109 9.31299 11.111 9.31299 11.1128C9.31345 11.1408 9.31871 11.1671 9.32237 11.1939C9.32466 11.2106 9.32489 11.2278 9.3281 11.2442C9.33428 11.2738 9.34458 11.3012 9.35442 11.3289C9.35946 11.3434 9.36266 11.3585 9.36861 11.3722C9.38052 11.4004 9.39654 11.426 9.41188 11.4523C9.41897 11.464 9.42424 11.4768 9.43179 11.4883C9.44919 11.5137 9.47002 11.5363 9.49062 11.5594C9.49932 11.5691 9.50642 11.5801 9.51558 11.5894C9.53778 11.6114 9.56273 11.63 9.58768 11.649C9.59776 11.6565 9.60668 11.6657 9.61698 11.6728C9.644 11.6911 9.67353 11.7055 9.70306 11.7197C9.71336 11.7245 9.72251 11.7314 9.73304 11.7357C9.76738 11.7501 9.80401 11.7602 9.84109 11.7691C9.84796 11.7707 9.85437 11.7739 9.86146 11.7753C9.90587 11.7842 9.95188 11.7893 9.99904 11.7893C10.0025 11.7893 10.0061 11.7893 10.0096 11.7893L12.7584 11.7481C13.1374 11.7424 13.4403 11.4301 13.4348 11.051C13.4295 10.6754 13.123 10.3746 12.7485 10.3746Z" fill="black"/>
</g>
<defs>
<clipPath id="clip0_90_1871">
<rect width="19" height="19" fill="white" transform="translate(0.5)"/>
</clipPath>
</defs>
</svg>
