<svg width="29" height="28" viewBox="0 0 29 28" fill="none" xmlns="http://www.w3.org/2000/svg">
<path d="M5.75 5.5C3.95507 5.5 2.5 6.95508 2.5 8.75V19.25C2.5 21.0449 3.95507 22.5 5.75 22.5H16.2523C18.0472 22.5 19.5023 21.0449 19.5023 19.25V17.6707L24.0434 20.7824C24.8729 21.3508 25.9999 20.7568 25.9999 19.7512V8.24842C25.9999 7.24298 24.8732 6.64898 24.0436 7.21708L19.5023 10.3272V8.75C19.5023 6.95508 18.0472 5.5 16.2523 5.5H5.75ZM19.5023 15.8524V12.1452L24.4999 8.72263V19.2769L19.5023 15.8524ZM18.0023 8.75V19.25C18.0023 20.2165 17.2187 21 16.2523 21H5.75C4.7835 21 4 20.2165 4 19.25V8.75C4 7.7835 4.7835 7 5.75 7H16.2523C17.2188 7 18.0023 7.7835 18.0023 8.75Z" fill="#212121"/>
</svg>
