<svg width="24" height="24" viewBox="0 0 24 24" fill="none" xmlns="http://www.w3.org/2000/svg">
<path d="M12 2C19.1914 2 22.2491 6.3125 23.5029 9.27375C23.9655 10.3675 24.1969 10.9137 23.789 11.4562C23.3811 12 22.6598 12 21.2171 12H2.78283C1.34018 12 0.620216 12 0.210961 11.4575C-0.196925 10.9137 0.0343928 10.3675 0.498398 9.27375C1.74943 6.3125 4.80858 2 12 2Z" fill="black" fill-opacity="0.25"/>
<path d="M12 17C14.7614 17 17 14.7614 17 12C17 9.23858 14.7614 7 12 7C9.23858 7 7 9.23858 7 12C7 14.7614 9.23858 17 12 17Z" fill="black"/>
</svg>
