<svg width="29" height="24" viewBox="0 0 29 24" fill="none" xmlns="http://www.w3.org/2000/svg">
<path d="M27.2943 14.7436C27.2603 15.253 27.2133 15.7625 27.1924 16.2719C27.1428 17.3883 27.0122 18.4884 26.5733 19.5208C25.9804 20.9135 24.933 21.7292 23.4911 21.889C22.1042 22.0408 20.7067 22.095 19.3145 22.1573C18.0555 22.2142 16.7939 22.2548 15.5349 22.2467C13.3382 22.2332 11.1415 22.1871 8.94737 22.1302C7.82419 22.1004 6.70363 22.0326 5.58307 21.9486C4.73939 21.8863 3.91921 21.7021 3.19307 21.2062C2.21878 20.545 1.7016 19.5668 1.50831 18.4179C1.34636 17.456 1.23404 16.4778 1.2027 15.5023C1.1374 13.6489 1.12695 11.7928 1.14523 9.93668C1.1583 8.76339 1.22098 7.5874 1.34897 6.42224C1.46129 5.38444 1.73033 4.37373 2.38856 3.53644C3.03112 2.72083 3.86697 2.18974 4.88044 2.08406C6.15772 1.94858 7.44023 1.84832 8.72273 1.82393C11.6273 1.76974 14.5293 1.74264 17.4312 1.76432C19.2335 1.77787 21.0384 1.88625 22.8407 1.9838C23.9744 2.04612 25.0061 2.4038 25.8315 3.26819C26.4427 3.90767 26.7301 4.70702 26.9312 5.55515C27.1793 6.60921 27.1793 7.69036 27.242 8.76339C27.2525 8.93681 27.276 9.11023 27.2943 9.28365V14.7436ZM13.7404 20.6588C13.7404 20.6588 13.7404 20.6561 13.7404 20.6534C14.046 20.6534 14.3543 20.6615 14.6599 20.6534C17.1622 20.5775 19.6619 20.5017 22.1642 20.4123C22.5952 20.396 23.0314 20.3608 23.4572 20.2795C24.5177 20.0763 25.0766 19.3446 25.3587 18.3096C25.6617 17.1986 25.6591 16.0578 25.7088 14.9225C25.808 12.6193 25.7923 10.3133 25.6591 8.01011C25.6147 7.21075 25.5834 6.40869 25.3614 5.62831C25.1733 4.96444 24.8886 4.38728 24.2878 4.02147C23.8673 3.76405 23.4102 3.63399 22.9322 3.6096C21.122 3.51206 19.3119 3.40367 17.4992 3.35218C13.4975 3.24109 9.4985 3.33051 5.5021 3.60418C4.20915 3.6936 3.42031 4.39812 3.06769 5.69605C2.77253 6.78263 2.77253 7.8963 2.7229 9.00184C2.62103 11.3403 2.62887 13.6842 2.77514 16.0199C2.82216 16.7894 2.92664 17.5617 3.07814 18.3204C3.30277 19.4585 4.01586 20.1277 5.12597 20.2551C6.24914 20.3825 7.38015 20.4665 8.50855 20.5152C10.2534 20.5884 11.9982 20.6128 13.7431 20.6588H13.7404Z" fill="white"/>
<path d="M10.8875 11.7114C10.8875 10.66 10.9163 9.60867 10.8771 8.56003C10.8457 7.69564 11.6868 7.02635 12.5618 7.53035C14.4164 8.60067 16.284 9.65202 18.149 10.7061C18.5486 10.931 18.7941 11.267 18.7941 11.7385C18.7941 12.21 18.5408 12.5432 18.1411 12.7654C16.2709 13.8059 14.3981 14.8437 12.5331 15.8978C11.6764 16.3828 10.8483 15.6946 10.8797 14.8654C10.9189 13.8168 10.8901 12.7654 10.8901 11.7141L10.8875 11.7114ZM12.4286 14.1257C13.8731 13.3182 15.281 12.5351 16.728 11.7276C15.2705 10.9012 13.8626 10.1018 12.4286 9.28893V14.1284V14.1257Z" fill="white"/>
</svg>
